# xmcd
#
# Track frame offsets: 
#        150
#        10115
#        18368
#        27836
#        39312
#        55724
#        69547
#        82291
#        94540
#        104099
#        118111
#        130253
#        141409
#        152992
#        170589
#        199851
#        214641
#        227095
#
# Disc length: 3474 seconds
#
# Revision: 0
# Processed by: cddbd v1.5.2PL0 Copyright (c) Steve Scherf et al.
# Submitted via: ExactAudioCopyFreeDBPlugin 1.0
#
DISCID=fa0d9012
DTITLE=Mississippi Fred McDowell - Come And Found You Gone - The Bill 
DTITLE=Ferris Recordings
DYEAR=2011
DGENRE=Blues
TTITLE0=Big Fat Mama, Meat Shakin' On Her Bone
TTITLE1=Shake 'em On Down
TTITLE2=Baby Please Don't Go
TTITLE3=Find My Suitcase
TTITLE4=Letter From Hot Springs
TTITLE5=John Henry
TTITLE6=Hello Darling What Have I Done
TTITLE7=Dream I Went To The U.N.
TTITLE8=The Boogie
TTITLE9=Little Red Rooster
TTITLE10=Get Right Church
TTITLE11=Death Came In
TTITLE12=Dialogue
TTITLE13=I Got Religion
TTITLE14=Come And Found You Gone
TTITLE15=Where Could I Go
TTITLE16=You Gonna Meet King Jesus
TTITLE17=Interview With Bill Ferris
EXTD=
EXTT0=
EXTT1=
EXTT2=
EXTT3=
EXTT4=
EXTT5=
EXTT6=
EXTT7=
EXTT8=
EXTT9=
EXTT10=
EXTT11=
EXTT12=
EXTT13=
EXTT14=
EXTT15=
EXTT16=
EXTT17=
PLAYORDER=
